<svg height="512" viewBox="0 0 128 128" width="512" xmlns="http://www.w3.org/2000/svg"><g><g><path d="m6.5 6.5h115v115h-115z" fill="#f5ddcd"/><path d="m6.5 6.5h115v17.692h-115z" fill="#d85134"/><g fill="#f5ddcd"><circle cx="106.005" cy="15.346" r="3"/><circle cx="91.262" cy="15.346" r="3"/><circle cx="76.518" cy="15.346" r="3"/></g><path d="m15.526 33.192h43.308v36.583h-43.308z" fill="#f0f0fb"/><path d="m58.83 59.92v9.86h-11.33l-10.22-13.89 12.97-7.62z" fill="#d3bb3b"/><path d="m47.5 69.78h-31.97v-12.02l16.14-9.48z" fill="#f4d844"/><path d="m69.167 33.192h43.308v70.615h-43.308z" fill="#f0f0fb"/></g><g fill="#0f1336"><path d="m121.5 44.875a1.751 1.751 0 0 0 -1.75 1.75v4.358a1.75 1.75 0 1 0 3.5 0v-4.358a1.751 1.751 0 0 0 -1.75-1.75z"/><path d="m121.5 4.75h-115a1.751 1.751 0 0 0 -1.75 1.75v115a1.751 1.751 0 0 0 1.75 1.75h115a1.751 1.751 0 0 0 1.75-1.75v-63.75a1.75 1.75 0 0 0 -3.5 0v62h-111.5v-93.808h111.5v13.225a1.75 1.75 0 0 0 3.5 0v-32.667a1.751 1.751 0 0 0 -1.75-1.75zm-113.25 17.692v-14.192h111.5v14.192z"/><path d="m106.005 10.6a4.75 4.75 0 1 0 4.75 4.75 4.756 4.756 0 0 0 -4.75-4.75zm0 6a1.25 1.25 0 1 1 1.25-1.25 1.251 1.251 0 0 1 -1.25 1.25z"/><path d="m91.262 10.6a4.75 4.75 0 1 0 4.75 4.75 4.756 4.756 0 0 0 -4.75-4.75zm0 6a1.25 1.25 0 1 1 1.25-1.25 1.25 1.25 0 0 1 -1.25 1.25z"/><path d="m76.518 10.6a4.75 4.75 0 1 0 4.75 4.75 4.756 4.756 0 0 0 -4.75-4.75zm0 6a1.25 1.25 0 1 1 1.25-1.25 1.251 1.251 0 0 1 -1.25 1.25z"/><path d="m44.5 45.872a4.75 4.75 0 1 0 -4.75-4.75 4.756 4.756 0 0 0 4.75 4.75zm0-6a1.25 1.25 0 1 1 -1.25 1.25 1.252 1.252 0 0 1 1.25-1.25z"/><path d="m60.583 33.192a1.75 1.75 0 0 0 -1.75-1.75h-43.307a1.751 1.751 0 0 0 -1.75 1.75v36.584a1.751 1.751 0 0 0 1.75 1.75h43.307a1.75 1.75 0 0 0 1.75-1.75zm-43.307 1.75h39.807v19.658l-5.42-7.36a1.751 1.751 0 0 0 -2.3-.471l-11.611 6.819-4.676-6.35a1.751 1.751 0 0 0 -2.3-.471l-9.05 5.317a1.75 1.75 0 0 0 1.774 3.016l7.689-4.518 12.849 17.444h-26.762zm31.109 33.084-8.547-11.6 9.942-5.84 7.3 9.916v7.529z"/><path d="m79.518 31.442h-10.351a1.75 1.75 0 0 0 -1.75 1.75v70.616a1.75 1.75 0 0 0 1.75 1.75h43.307a1.751 1.751 0 0 0 1.75-1.75v-70.616a1.751 1.751 0 0 0 -1.75-1.75h-23.224a1.75 1.75 0 0 0 0 3.5h21.474v67.116h-39.807v-67.116h8.6a1.75 1.75 0 0 0 0-3.5z"/><path d="m103.474 42.418h-25.307a1.75 1.75 0 0 0 0 3.5h25.307a1.75 1.75 0 0 0 0-3.5z"/><path d="m103.474 50.528h-25.307a1.75 1.75 0 0 0 0 3.5h25.307a1.75 1.75 0 0 0 0-3.5z"/><path d="m103.474 58.639h-25.307a1.75 1.75 0 0 0 0 3.5h25.307a1.75 1.75 0 0 0 0-3.5z"/><path d="m103.474 66.75h-25.307a1.75 1.75 0 0 0 0 3.5h25.307a1.75 1.75 0 0 0 0-3.5z"/><path d="m103.474 74.861h-25.307a1.75 1.75 0 0 0 0 3.5h25.307a1.75 1.75 0 0 0 0-3.5z"/><path d="m103.474 82.971h-25.307a1.75 1.75 0 0 0 0 3.5h25.307a1.75 1.75 0 0 0 0-3.5z"/><path d="m103.474 91.082h-25.307a1.75 1.75 0 0 0 0 3.5h25.307a1.75 1.75 0 0 0 0-3.5z"/><path d="m58.833 76.917h-43.333a1.75 1.75 0 0 0 0 3.5h43.333a1.75 1.75 0 0 0 0-3.5z"/><path d="m58.833 85.027h-43.333a1.75 1.75 0 0 0 0 3.5h43.333a1.75 1.75 0 1 0 0-3.5z"/><path d="m58.833 93.138h-43.333a1.75 1.75 0 0 0 0 3.5h43.333a1.75 1.75 0 0 0 0-3.5z"/><path d="m58.833 101.249h-43.333a1.75 1.75 0 0 0 0 3.5h43.333a1.75 1.75 0 0 0 0-3.5z"/></g></g></svg>