<?xml version="1.0"?>
<svg xmlns="http://www.w3.org/2000/svg" viewBox="0 0 192 192" width="512" height="512"><g id="_20-professional" data-name="20-professional"><path d="M176,0H16A8,8,0,0,0,8,8V184a8,8,0,0,0,8,8H176a8,8,0,0,0,8-8V8A8,8,0,0,0,176,0ZM94.863,48h2.274l14.34,93.21L96,156.687,80.523,141.21Zm23.383-32H144V44.9L113.558,34.753Zm-16.492,0-4,16H94.246l-4-16Zm-28,0,4.688,18.753L48,44.9V16ZM168,176H24V16h8V56a8.063,8.063,0,0,0,10.53,7.59L78.1,51.733l-14.007,91.05a8,8,0,0,0,2.25,6.874l24,24a8,8,0,0,0,11.314,0l24-24a8,8,0,0,0,2.25-6.874L113.9,51.733,149.47,63.59c4.167,1.683,10.747-1.936,10.53-7.59V16h8Z"/></g></svg>
